<?xml version="1.0" standalone="no"?>
<!DOCTYPE svg PUBLIC "-//W3C//DTD SVG 20010904//EN"
 "http://www.w3.org/TR/2001/REC-SVG-20010904/DTD/svg10.dtd">
<svg version="1.0" xmlns="http://www.w3.org/2000/svg"
 width="385.000000pt" height="385.000000pt" viewBox="0 0 385.000000 385.000000"
 preserveAspectRatio="xMidYMid meet">
<metadata>
Created by potrace 1.11, written by Peter Selinger 2001-2013
</metadata>
<g transform="translate(0.000000,385.000000) scale(0.100000,-0.100000)"
fill="#000000" stroke="none">
<path d="M1513 3462 c-379 -386 -508 -517 -1016 -1036 -183 -186 -353 -359
-380 -385 l-47 -48 117 -116 c65 -64 206 -202 313 -307 338 -331 846 -829
1105 -1084 138 -135 252 -246 255 -246 3 0 7 514 8 1143 2 628 4 1432 5 1785
1 354 -1 645 -4 647 -3 2 -163 -157 -356 -353z"/>
<path d="M1983 3443 c-1 -93 -2 -240 -3 -328 0 -88 0 -164 1 -170 1 -5 0 -14
-1 -20 -1 -5 -4 -253 -6 -550 -2 -297 -6 -802 -8 -1122 -3 -320 -7 -587 -11
-593 -3 -5 -1 -10 5 -10 6 0 8 -4 5 -10 -7 -11 -8 -89 -2 -132 3 -16 1 -28 -2
-28 -3 0 -6 -101 -6 -225 0 -124 2 -225 5 -225 3 0 361 358 795 796 435 438
841 847 903 909 l112 112 -69 69 c-363 363 -1703 1690 -1709 1692 -4 1 -8 -73
-9 -165z"/>
</g>
</svg>
